<svg width="16" height="16" viewBox="0 0 16 16" fill="none" xmlns="http://www.w3.org/2000/svg">
<g clip-path="url(#clip0_781_986)">
<path d="M7.99999 0.0150146C7.33598 0.0150146 6.6723 0.267079 6.16749 0.771888L0.771865 6.16689C-0.237757 7.17651 -0.237757 8.82289 0.771865 9.83251L6.16749 15.2281C7.17686 16.2375 8.82312 16.2375 9.83249 15.2281L15.2281 9.83314C16.2377 8.82352 16.2377 7.17714 15.2281 6.16751L9.83312 0.771888C9.3283 0.267075 8.664 0.0150146 7.99999 0.0150146ZM7.99999 0.650637C8.49886 0.650637 8.99807 0.841837 9.38061 1.22439L12.3156 4.16001H11.8625C11.3534 4.16001 10.865 4.36222 10.505 4.72189C10.505 4.7221 10.505 4.7223 10.505 4.72251L8.33936 6.88814C8.14938 7.07812 7.85036 7.07831 7.65999 6.88814L5.49436 4.72251C5.13479 4.36256 4.64659 4.16001 4.13749 4.16001H3.68374L6.61999 1.22439C7.00253 0.84184 7.50112 0.650637 7.99999 0.650637ZM3.04374 4.80001H4.13749C4.47702 4.80001 4.80239 4.93466 5.04187 5.17439C5.04187 5.17459 5.04187 5.1748 5.04187 5.17501L7.20749 7.34064C7.6424 7.7751 8.35721 7.77529 8.79187 7.34064L10.9575 5.17501C11.1978 4.93499 11.523 4.80001 11.8625 4.80001H12.9556L14.7756 6.62001C15.5407 7.38511 15.5407 8.61554 14.7756 9.38064L12.9562 11.2H11.8625C11.523 11.2 11.1978 11.065 10.9575 10.825L8.79187 8.65939C8.57454 8.44206 8.28728 8.33377 7.99999 8.33376C7.7127 8.33376 7.42494 8.44216 7.20749 8.65939L5.04187 10.825C5.04187 10.8252 5.04187 10.8254 5.04187 10.8256C4.80239 11.0654 4.47702 11.2 4.13749 11.2H3.04436L1.22436 9.38001C0.459267 8.61491 0.459267 7.38449 1.22436 6.61939L3.04374 4.80001ZM7.99999 8.96939C8.12229 8.96941 8.24437 9.0169 8.33937 9.11189L10.505 11.2775C10.505 11.2777 10.505 11.2779 10.505 11.2781C10.865 11.6378 11.3534 11.84 11.8625 11.84H12.3162L9.37999 14.7756C8.61529 15.5403 7.3847 15.5403 6.61999 14.7756L3.68437 11.84H4.13749C4.6466 11.84 5.1348 11.6375 5.49437 11.2775L7.65999 9.11189C7.75518 9.0168 7.87769 8.96936 7.99999 8.96939Z" fill="#0277BD"/>
</g>
<defs>
<clipPath id="clip0_781_986">
<rect width="16" height="16" fill="white"/>
</clipPath>
</defs>
</svg>
